<svg width="1000" viewBox="0 0 24 24" fill="none" xmlns="http://www.w3.org/2000/svg">
<g clip-path="url(#clip0_11_107)">
<path d="M23.6398 14.9029C22.0371 21.3315 15.5256 25.2435 9.09618 23.6408C2.66981 22.038 -1.24257 15.5265 0.36056 9.09825C1.96256 2.66888 8.47368 -1.24387 14.9012 0.358877C21.3302 1.96163 25.2422 8.47388 23.6394 14.9029H23.6398Z" fill="#F7931A"/>
<path d="M17.2911 10.2904C17.5296 8.69363 16.3138 7.83525 14.6515 7.26263L15.1907 5.09963L13.8737 4.7715L13.3487 6.8775C13.003 6.79125 12.6475 6.70988 12.2942 6.62925L12.823 4.50938L11.5071 4.18125L10.9675 6.3435C10.681 6.27825 10.3997 6.21375 10.1267 6.14588L10.1282 6.13913L8.31245 5.68575L7.9622 7.092C7.9622 7.092 8.93908 7.31588 8.91845 7.32975C9.4517 7.46288 9.54845 7.81575 9.53195 8.0955L8.9177 10.5596C8.95445 10.569 9.00208 10.5825 9.05458 10.6035L8.91583 10.569L8.05445 14.0209C7.9892 14.1829 7.82383 14.4259 7.45108 14.3336C7.4642 14.3528 6.49408 14.0948 6.49408 14.0948L5.84045 15.6023L7.5542 16.0294C7.87295 16.1093 8.18533 16.1929 8.49245 16.2716L7.94758 18.4598L9.2627 18.7879L9.8027 16.6234C10.1616 16.7209 10.5103 16.8109 10.8516 16.8956L10.3138 19.05L11.6305 19.3781L12.1753 17.1945C14.4205 17.6194 16.1091 17.448 16.819 15.4178C17.3916 13.7828 16.7908 12.8396 15.6096 12.2243C16.4698 12.0251 17.1178 11.4593 17.2907 10.2904H17.2911ZM14.2825 14.5087C13.8752 16.1438 11.1227 15.2603 10.2298 15.0383L10.9528 12.1399C11.8453 12.3626 14.707 12.8036 14.2828 14.5087H14.2825ZM14.6893 10.2668C14.3181 11.754 12.0268 10.9984 11.2832 10.8131L11.9387 8.18438C12.6823 8.36963 15.0763 8.71538 14.6893 10.2668Z" fill="white"/>
</g>
<defs>
<clipPath id="clip0_11_107">
<rect width="24" height="24" fill="white"/>
</clipPath>
</defs>
</svg>
