<svg width="1000" viewBox="0 0 24 24" fill="none" xmlns="http://www.w3.org/2000/svg">
<g clip-path="url(#clip0_11_100)">
<path d="M16.4062 24H7.59375C3.39375 24 0 20.6063 0 16.4062V7.59375C0 3.39375 3.39375 0 7.59375 0H16.4062C20.6063 0 24 3.39375 24 7.59375V16.4062C24 20.6063 20.6063 24 16.4062 24Z" fill="url(#paint0_linear_11_100)"/>
<path opacity="0.2" d="M12.6 16.725V20.9813L17.8875 13.575L12.6 16.725ZM17.6812 12.2063L12.6 3.76875V9.9L17.6812 12.2063ZM12.6 10.3688V15.6188L17.6437 12.675L12.6 10.3688ZM7.08748 12.2063L12.1687 3.76875V9.9L7.08748 12.2063ZM12.1687 10.3688V15.6188L7.12498 12.675L12.1687 10.3688ZM12.15 16.725V20.9813L6.88123 13.575L12.15 16.725Z" fill="black"/>
<path d="M12.225 16.35V20.6063L17.5125 13.2L12.225 16.35ZM17.3062 11.8313L12.225 3.39375V9.525L17.3062 11.8313ZM12.225 9.99375V15.2438L17.2687 12.3L12.225 9.99375ZM6.71248 11.8313L11.7937 3.39375V9.525L6.71248 11.8313ZM11.7937 9.99375V15.2438L6.74998 12.3L11.7937 9.99375ZM11.775 16.35V20.6063L6.50623 13.2L11.775 16.35Z" fill="white"/>
</g>
<defs>
<linearGradient id="paint0_linear_11_100" x1="2.22188" y1="2.22188" x2="21.7781" y2="21.7781" gradientUnits="userSpaceOnUse">
<stop stop-color="#6E75B8"/>
<stop offset="1" stop-color="#495B9D"/>
</linearGradient>
<clipPath id="clip0_11_100">
<rect width="24" height="24" fill="white"/>
</clipPath>
</defs>
</svg>
